# Rhino

mtllib plane.mtl
v 4.047203540802 0 0
v 5.952796459198 0 5
v -4.047203540802 0 0
vt 0.803373277187347 0.00980392191559076
vt 0.990196049213409 0.990196049213409
vt 0.00980392191559076 0.00980392191559076
vn 0 1 0
vn 0 1 0
vn 0 1 0
f 2/2/2 1/1/1 3/3/3
v 4.047203540802 0 0
v 5.952796459198 0 -5
v -4.047203540802 0 0
vt 0.803373277187347 0.00980392191559076
vt 0.990196049213409 0.990196049213409
vt 0.00980392191559076 0.00980392191559076
vn 0 1 0
vn 0 1 0
vn 0 1 0
f 5/5/5 6/6/6 4/4/4
